<?xml version="1.0" encoding="utf-8"?>
<!-- Generator: Adobe Illustrator 16.0.3, SVG Export Plug-In . SVG Version: 6.00 Build 0)  -->
<!DOCTYPE svg PUBLIC "-//W3C//DTD SVG 1.1//EN" "http://www.w3.org/Graphics/SVG/1.1/DTD/svg11.dtd">
<svg version="1.1" id="Ebene_1" xmlns="http://www.w3.org/2000/svg" xmlns:xlink="http://www.w3.org/1999/xlink" x="0px" y="0px"
	 width="17.008px" height="17.008px" viewBox="1.417 1.418 17.008 17.008" enable-background="new 1.417 1.418 17.008 17.008"
	 xml:space="preserve">
<g>
	<g>
		<path fill="#000000" d="M5.545,13.152l0.001-0.538l-0.517-0.012l-0.001-0.544h0.516l0.002-0.521l-0.518,0.041l0-0.561l0.518-0.019
			L5.543,10.46H4.495V9.905l1.047,0.018V9.366H5.025V8.827h0.516L5.54,8.289L4.492,8.306L4.491,7.735l1.048,0.033L5.538,7.229H5.022
			V6.674h0.515L5.535,6.153H4.504l0-0.555h1.031L5.534,5.075H5.017V4.521h0.516V3.999H4.485L4.484,3.443h1.031l0.03-0.521
			c0,0-0.021-0.539-0.516-0.539H3.999c-0.285,0-1.032-0.078-1.032,0.539l0.022,10.229H5.545z M13.28,14.23l-0.566,0.005l0.031-0.555
			l-0.495,0.013v1.076h-0.515l0.02-1.089h-0.558v0.539l-0.532,0.001v-0.539h-0.498v1.078H9.634v-1.076l-0.499,0.002v0.539H8.604
			v-0.539h-0.5v1.06l-0.532,0.001v-1.042l-0.484-0.018l-0.016,0.521L6.54,14.207v-0.539l-0.491,0.015l-0.007,1.082H5.525v-1.073
			H5.029v0.539H4.513v-0.539H4.014v1.076H3.466l0-1.068l-0.5-0.008l0.001,2.691l10.294-0.002c0.285,0,0.516-0.241,0.516-0.539
			v-2.146l-0.495-0.004v0.539L13.28,14.23L13.28,14.23z M2.967,16.921l-0.016-0.021c0,0,0.016,1.099,1.004,1.099h1.59l0.005-1.087
			l-0.005,0.009H2.967z M1.42,15.333c0,1.031,1.021,1.049,1.021,1.049l0.02-2.159l-1.042-0.012L1.42,15.333z M15.887,1.845
			l-1.59-0.001l-0.006,1.087l0.022,0.529h2.579V2.945C16.893,2.945,16.875,1.845,15.887,1.845z M14.813,7.229v0.555h-0.516
			l0.016,0.521l0.501,0.005v0.558l-0.501-0.025L14.3,9.383h1.048v0.555L14.301,9.92l0.001,0.554h0.515l0.002,0.538h-0.516v0.541
			l1.049-0.019v0.571l-1.048-0.033l0.001,0.539h0.517v0.554h-0.516l0.001,0.521h1.032l0.001,0.555h-1.031v0.52h0.516v0.556H14.31
			v0.521h1.049v0.555h-1.032l-0.029,0.521c0,0,0.021,0.538,0.517,0.538h1.031c0.286,0,1.032,0.105,1.032-0.538l-0.022-9.683H14.813z
			 M6.065,4.54l0.028,2.146l0.484,0.005l0.037-0.543l0.479,0.004l0.004,0.551l0.516-0.001V5.625l0.511-0.011v1.077H8.64l0.026-0.527
			h0.51v0.538L9.675,6.7V5.622h0.534V6.7l0.499-0.001V6.158h0.532v0.539h0.5v-1.06h0.531V6.68l0.483,0.018l0.017-0.522h0.531v0.538
			L13.793,6.7l0.01-1.082h0.516v1.072h0.494V6.153h0.518v0.538h0.498V5.614h0.549v1.069l0.501,0.008V3.999L6.581,4.001
			C6.296,4.001,6.065,4.243,6.065,4.54z M18.423,5.048c0-1.033-1.021-1.049-1.021-1.049l-0.018,2.159l1.043,0.012L18.423,5.048z"/>
	</g>
</g>
</svg>
