<?xml version="1.0" encoding="utf-8"?>
<!-- Generator: Adobe Illustrator 16.0.3, SVG Export Plug-In . SVG Version: 6.00 Build 0)  -->
<!DOCTYPE svg PUBLIC "-//W3C//DTD SVG 1.1//EN" "http://www.w3.org/Graphics/SVG/1.1/DTD/svg11.dtd">
<svg version="1.1" id="Ebene_1" xmlns="http://www.w3.org/2000/svg" xmlns:xlink="http://www.w3.org/1999/xlink" x="0px" y="0px"
	 width="17.01px" height="17.01px" viewBox="0 0 17.01 17.01" enable-background="new 0 0 17.01 17.01" xml:space="preserve">
<g>
	<defs>
		<path id="SVGID_1_" d="M12.756,14.889v0.033h-7.44H4.253c-2.349,0-4.252-1.904-4.252-4.252c0-2.35,1.903-4.252,4.252-4.252
			c0.313,0,0.617,0.035,0.91,0.1C5.12,6.287,5.087,6.052,5.087,5.808c0-2.054,1.668-3.72,3.721-3.72
			c1.903,0,3.456,1.435,3.678,3.278c2.521,0.137,4.523,2.217,4.523,4.77C17.009,12.6,15.147,14.627,12.756,14.889L12.756,14.889z
			 M11.458,6.789l-3.53,3.53L6.689,9.076L5.861,9.902l1.654,1.653l0.412,0.416l4.355-4.356L11.458,6.789L11.458,6.789z"/>
	</defs>
	<use xlink:href="#SVGID_1_"  overflow="visible" fill-rule="evenodd" clip-rule="evenodd" fill="#000000"/>
	<clipPath id="SVGID_2_">
		<use xlink:href="#SVGID_1_"  overflow="visible"/>
	</clipPath>
</g>
</svg>
