<?xml version="1.0" encoding="utf-8"?>
<!-- Generator: Adobe Illustrator 16.0.3, SVG Export Plug-In . SVG Version: 6.00 Build 0)  -->
<!DOCTYPE svg PUBLIC "-//W3C//DTD SVG 1.1//EN" "http://www.w3.org/Graphics/SVG/1.1/DTD/svg11.dtd">
<svg version="1.1" id="Ebene_1" xmlns="http://www.w3.org/2000/svg" xmlns:xlink="http://www.w3.org/1999/xlink" x="0px" y="0px"
	 width="17.01px" height="17.01px" viewBox="0 0 17.01 17.01" enable-background="new 0 0 17.01 17.01" xml:space="preserve">
<g>
	<path fill="#000000" d="M7.364,8.33C7.677,8.662,8.032,9,8.48,9.396l0.166,0.146l-0.094-0.2C8.397,9.007,8.181,8.701,7.973,8.404
		c-0.26-0.369-0.528-0.752-0.68-1.189c-0.159-0.44-0.11-0.953,0.133-1.373c0.296-0.535,0.771-0.943,1.195-1.284
		C9.083,4.186,9.438,3.85,9.736,3.5c0.496-0.578,0.789-1.134,0.896-1.699c0.119-0.614-0.035-1.237-0.412-1.667L10.104,0l0.035,0.172
		c0.065,0.313,0.14,0.785,0.037,1.242C10.075,1.913,9.794,2.401,9.34,2.869C8.967,3.257,8.536,3.596,8.118,3.923
		C7.727,4.23,7.323,4.547,6.963,4.907c-0.269,0.279-0.54,0.585-0.661,0.966C6.192,6.212,6.23,6.618,6.411,7.017
		C6.653,7.536,7.029,7.972,7.364,8.33z"/>
	<path fill="#000000" d="M8.494,6.37C8.432,6.937,8.663,7.537,9.18,8.153C9.416,8.413,9.534,8.66,9.54,8.909
		c0.007,0.349-0.176,0.718-0.5,1.012l-0.107,0.097l0.145-0.017C9.136,9.994,9.18,9.959,9.22,9.929
		c0.016-0.013,0.032-0.026,0.052-0.037c0.564-0.361,0.914-0.725,1.102-1.146c0.146-0.341,0.116-0.752-0.08-1.074
		c-0.081-0.132-0.173-0.26-0.263-0.383C9.879,7.074,9.72,6.852,9.613,6.606c-0.099-0.232-0.114-0.475-0.048-0.68
		c0.106-0.329,0.349-0.589,0.544-0.778c0.518-0.49,1.134-0.874,1.729-1.244c0.145-0.089,0.287-0.178,0.43-0.269l0.27-0.171
		L12.23,3.552c-1.104,0.317-1.98,0.721-2.679,1.234C9.11,5.117,8.569,5.659,8.494,6.37z"/>
	<path fill="#000000" d="M14.722,10.6c0.059-0.37-0.086-0.762-0.379-1.021C14.076,9.334,13.709,9.2,13.312,9.2
		c-0.076,0-0.152,0.005-0.229,0.015c-0.254,0.033-0.542,0.087-0.727,0.311l-0.083,0.099l0.127-0.025
		c0.061-0.012,0.119-0.027,0.18-0.042c0.124-0.032,0.24-0.062,0.361-0.062c0.021,0,0.043,0.001,0.065,0.003
		c0.453,0.023,0.85,0.353,0.924,0.764c0.03,0.153,0.01,0.3-0.029,0.439c0.253,0.048,0.492,0.128,0.721,0.231
		C14.669,10.823,14.705,10.713,14.722,10.6z"/>
	<path fill="#000000" d="M4.116,10.665c0.521,0.141,1.054,0.185,1.646,0.225c0.379,0.024,0.789,0.037,1.253,0.037
		c0.076,0,0.151,0,0.229-0.001c1.562-0.026,2.739-0.146,3.823-0.386l0.061-0.016c0.105-0.023,0.216-0.049,0.311-0.113
		c0.194-0.126,0.409-0.229,0.619-0.326l0.332-0.158l-0.321,0.051C10.842,10.175,9.896,10.289,9,10.345
		c-0.801,0.051-1.412,0.074-1.981,0.074c-0.41,0-0.788-0.014-1.152-0.037l-0.094-0.009c-0.263-0.023-0.535-0.047-0.775-0.146
		c-0.045-0.021-0.119-0.061-0.103-0.106c0.047-0.084,0.141-0.133,0.23-0.181l0.04-0.021C5.528,9.747,5.926,9.635,6.31,9.527
		C6.4,9.501,6.49,9.476,6.579,9.45l0.296-0.087L6.495,9.36c-0.747,0-1.535,0.178-2.347,0.525C4.115,9.901,4.08,9.917,4.045,9.933
		c-0.142,0.064-0.287,0.13-0.401,0.249c-0.036,0.039-0.054,0.093-0.05,0.148c0.003,0.05,0.026,0.093,0.062,0.121
		C3.79,10.573,3.971,10.624,4.116,10.665z"/>
	<path fill="#000000" d="M10.789,11.713l-0.019-0.017l-0.021,0.005c-0.726,0.127-1.436,0.244-2.156,0.281
		c-0.227,0.016-0.464,0.022-0.706,0.022c-0.498,0-1.024-0.03-1.658-0.097c-0.157-0.021-0.297-0.046-0.421-0.108
		c-0.043-0.026-0.115-0.079-0.112-0.149c0.006-0.091,0.071-0.163,0.141-0.238c0.019-0.021,0.037-0.041,0.054-0.062l0.107-0.131
		L5.84,11.278c-0.275,0.098-0.521,0.19-0.733,0.357c-0.133,0.104-0.195,0.231-0.172,0.351c0.04,0.155,0.178,0.248,0.322,0.325
		c0.305,0.157,0.642,0.229,0.988,0.291c0.491,0.079,1.005,0.117,1.572,0.117c0.312,0,0.629-0.012,0.976-0.034
		c0.574-0.045,1.121-0.132,1.653-0.239c0.117-0.241,0.265-0.462,0.436-0.664C10.852,11.757,10.818,11.74,10.789,11.713z"/>
	<path fill="#000000" d="M10.156,13.472l-0.05,0.008c-0.468,0.081-0.952,0.166-1.434,0.196c-0.178,0.014-0.364,0.021-0.556,0.021
		c-0.437,0-0.904-0.034-1.514-0.109c-0.028-0.007-0.059-0.013-0.089-0.02c-0.14-0.026-0.283-0.056-0.359-0.152
		c-0.03-0.064,0.021-0.115,0.102-0.188c0.013-0.01,0.024-0.021,0.036-0.032l0.139-0.131l-0.183,0.054
		C6.03,13.18,5.782,13.26,5.582,13.42c-0.107,0.084-0.191,0.23-0.139,0.373c0.063,0.164,0.21,0.259,0.357,0.343
		c0.359,0.196,0.766,0.288,1.153,0.356c0.393,0.063,0.8,0.094,1.209,0.094c0.483,0,0.978-0.043,1.466-0.13
		c0.195-0.037,0.366-0.085,0.542-0.13c-0.026-0.164-0.051-0.329-0.051-0.501C10.12,13.704,10.143,13.589,10.156,13.472z"/>
	<path fill="#000000" d="M7.826,15.666c-0.813,0-1.616-0.032-2.384-0.098c-0.582-0.062-1.239-0.131-1.835-0.353l-0.039-0.017
		c-0.096-0.039-0.166-0.073-0.17-0.144c0.032-0.085,0.116-0.137,0.212-0.188c0.402-0.206,0.871-0.33,1.356-0.36l0.151-0.01
		l-0.131-0.076c-0.141-0.084-0.303-0.094-0.429-0.094c-0.02,0-0.039,0.001-0.059,0.001c-0.441,0.015-0.86,0.139-1.176,0.243
		c-0.341,0.125-0.667,0.258-0.928,0.496c-0.137,0.12-0.213,0.313-0.093,0.45c0.159,0.172,0.396,0.228,0.607,0.275l0.061,0.014
		c1.212,0.209,2.498,0.338,3.82,0.386c0.313,0.009,0.623,0.014,0.918,0.014c1.186,0,2.262-0.073,3.269-0.219
		c-0.129-0.139-0.246-0.286-0.35-0.445C9.664,15.62,8.72,15.666,7.826,15.666z"/>
	<path fill="#000000" d="M11.167,16.458c-1.31,0.165-2.696,0.228-4.125,0.185c-0.689-0.026-1.597-0.077-2.498-0.229l-0.207-0.036
		l0.173,0.12c0.16,0.107,0.349,0.156,0.531,0.204c0.044,0.012,0.089,0.022,0.136,0.035c0.901,0.19,1.817,0.232,2.836,0.264
		c0.2,0.004,0.401,0.006,0.602,0.006c1.288,0,2.424-0.08,3.47-0.241c-0.225-0.094-0.432-0.216-0.627-0.354
		C11.362,16.425,11.261,16.446,11.167,16.458z"/>
</g>
<g>
	<g>
		<path fill="#000000" d="M13.305,12.71c-0.615,0-1.114,0.499-1.114,1.114s0.499,1.114,1.114,1.114c0.614,0,1.114-0.499,1.114-1.114
			S13.921,12.71,13.305,12.71z M13.287,14.488c-0.375,0-0.68-0.305-0.68-0.681c0-0.375,0.304-0.68,0.68-0.68s0.681,0.305,0.681,0.68
			C13.967,14.183,13.663,14.488,13.287,14.488z M13.306,10.842c-1.648,0-2.984,1.336-2.984,2.983c0,1.648,1.336,2.983,2.984,2.983
			c1.647,0,2.983-1.335,2.983-2.983C16.289,12.178,14.953,10.842,13.306,10.842z M13.306,16.37c-1.405,0-2.545-1.14-2.545-2.545
			s1.14-2.544,2.545-2.544c1.406,0,2.544,1.139,2.544,2.544S14.712,16.37,13.306,16.37z M13.286,11.781
			c-1.129,0-2.044,0.916-2.044,2.045c0,1.13,0.915,2.045,2.044,2.045c1.13,0,2.044-0.915,2.044-2.045
			C15.33,12.697,14.415,11.781,13.286,11.781z M13.305,15.428c-0.885,0-1.603-0.718-1.603-1.603c0-0.886,0.718-1.604,1.603-1.604
			c0.886,0,1.603,0.718,1.603,1.604C14.907,14.71,14.191,15.428,13.305,15.428z"/>
	</g>
</g>
</svg>
