<?xml version="1.0" encoding="utf-8"?>
<!-- Generator: Adobe Illustrator 16.0.3, SVG Export Plug-In . SVG Version: 6.00 Build 0)  -->
<!DOCTYPE svg PUBLIC "-//W3C//DTD SVG 1.1//EN" "http://www.w3.org/Graphics/SVG/1.1/DTD/svg11.dtd">
<svg version="1.1" id="Ebene_1" xmlns="http://www.w3.org/2000/svg" xmlns:xlink="http://www.w3.org/1999/xlink" x="0px" y="0px"
	 width="17.01px" height="17.01px" viewBox="0 0 17.01 17.01" enable-background="new 0 0 17.01 17.01" xml:space="preserve">
<g>
	<path fill="#000000" d="M7.364,8.33C7.677,8.662,8.032,9,8.48,9.396l0.166,0.146l-0.094-0.2C8.397,9.007,8.181,8.701,7.973,8.404
		c-0.26-0.369-0.528-0.752-0.68-1.189c-0.159-0.44-0.11-0.953,0.133-1.373c0.296-0.535,0.771-0.943,1.195-1.284
		C9.083,4.186,9.438,3.85,9.736,3.5c0.496-0.578,0.789-1.134,0.896-1.699c0.119-0.614-0.035-1.237-0.412-1.667L10.104,0l0.035,0.172
		c0.065,0.313,0.14,0.785,0.037,1.242C10.075,1.913,9.794,2.401,9.34,2.869C8.967,3.257,8.536,3.596,8.118,3.923
		C7.727,4.23,7.323,4.547,6.963,4.907c-0.269,0.279-0.54,0.585-0.661,0.966C6.192,6.212,6.23,6.618,6.411,7.017
		C6.653,7.536,7.029,7.972,7.364,8.33z"/>
	<path fill="#000000" d="M8.494,6.37C8.432,6.937,8.663,7.537,9.18,8.153C9.416,8.413,9.534,8.66,9.54,8.909
		c0.007,0.349-0.176,0.718-0.5,1.012l-0.107,0.097l0.145-0.017C9.136,9.994,9.18,9.959,9.22,9.929
		c0.016-0.013,0.032-0.026,0.052-0.037c0.564-0.361,0.914-0.725,1.102-1.146c0.146-0.341,0.116-0.752-0.08-1.074
		c-0.081-0.132-0.173-0.26-0.263-0.383C9.879,7.074,9.72,6.852,9.613,6.606c-0.099-0.232-0.114-0.475-0.048-0.68
		c0.106-0.329,0.349-0.589,0.544-0.778c0.518-0.49,1.134-0.874,1.729-1.244c0.145-0.089,0.287-0.178,0.43-0.269l0.27-0.171
		L12.23,3.552c-1.104,0.317-1.98,0.721-2.679,1.234C9.11,5.117,8.569,5.659,8.494,6.37z"/>
	<path fill="#000000" d="M12.58,9.557c0.124-0.032,0.24-0.062,0.361-0.062c0.021,0,0.043,0.001,0.065,0.003
		c0.453,0.023,0.85,0.353,0.924,0.764c0.081,0.406-0.142,0.784-0.342,1.029c-0.045,0.054-0.098,0.1-0.146,0.149l0.163,0.107v0.419
		c0.156-0.093,0.304-0.191,0.438-0.299c0.396-0.329,0.624-0.688,0.679-1.068c0.059-0.37-0.086-0.762-0.379-1.021
		C14.076,9.334,13.709,9.2,13.312,9.2c-0.076,0-0.152,0.005-0.229,0.015c-0.182,0.023-0.379,0.061-0.545,0.159l0.002,0.191
		C12.554,9.563,12.567,9.56,12.58,9.557z"/>
	<path fill="#000000" d="M9,10.345c-0.801,0.051-1.412,0.074-1.981,0.074c-0.41,0-0.788-0.014-1.152-0.037l-0.094-0.009
		c-0.263-0.023-0.535-0.047-0.775-0.146c-0.045-0.021-0.119-0.061-0.103-0.106c0.047-0.084,0.141-0.133,0.23-0.181l0.04-0.021
		C5.528,9.747,5.926,9.635,6.31,9.527C6.4,9.501,6.49,9.476,6.579,9.45l0.296-0.087L6.495,9.36c-0.747,0-1.535,0.178-2.347,0.525
		C4.115,9.901,4.08,9.917,4.045,9.933c-0.142,0.064-0.287,0.13-0.401,0.249c-0.036,0.039-0.054,0.093-0.05,0.148
		c0.003,0.05,0.026,0.093,0.062,0.121c0.135,0.121,0.315,0.173,0.461,0.214c0.521,0.141,1.054,0.185,1.646,0.225
		c0.379,0.024,0.789,0.037,1.253,0.037c0.076,0,0.151,0,0.229-0.001c1.562-0.026,2.739-0.146,3.823-0.386l0.061-0.016
		c0.049-0.011,0.099-0.022,0.147-0.038l0.004-0.389C10.419,10.223,9.693,10.302,9,10.345z"/>
	<path fill="#000000" d="M8.593,11.983c-0.227,0.016-0.464,0.022-0.706,0.022c-0.498,0-1.024-0.03-1.658-0.097
		c-0.157-0.021-0.297-0.046-0.421-0.108c-0.043-0.026-0.115-0.079-0.112-0.149c0.006-0.091,0.071-0.163,0.141-0.238
		c0.019-0.021,0.037-0.041,0.054-0.062l0.107-0.131L5.84,11.278c-0.275,0.098-0.521,0.19-0.733,0.357
		c-0.133,0.104-0.195,0.231-0.172,0.351c0.04,0.155,0.178,0.248,0.322,0.325c0.305,0.157,0.642,0.229,0.988,0.291
		c0.491,0.079,1.005,0.117,1.572,0.117c0.312,0,0.629-0.012,0.976-0.034c0.5-0.039,0.983-0.105,1.452-0.192v-0.71
		C9.694,11.873,9.146,11.954,8.593,11.983z"/>
	<path fill="#000000" d="M10.234,13.459l-0.128,0.021c-0.468,0.081-0.952,0.166-1.434,0.196c-0.178,0.014-0.364,0.021-0.556,0.021
		c-0.437,0-0.904-0.034-1.514-0.109c-0.028-0.007-0.059-0.013-0.089-0.02c-0.14-0.026-0.283-0.056-0.359-0.152
		c-0.03-0.064,0.021-0.115,0.102-0.188c0.013-0.01,0.024-0.021,0.036-0.032l0.139-0.131l-0.183,0.054
		C6.03,13.18,5.782,13.26,5.582,13.42c-0.107,0.084-0.191,0.23-0.139,0.373c0.063,0.164,0.21,0.259,0.357,0.343
		c0.359,0.196,0.766,0.288,1.153,0.356c0.393,0.063,0.8,0.094,1.209,0.094c0.483,0,0.978-0.043,1.466-0.13
		c0.223-0.042,0.419-0.095,0.616-0.148v-0.842L10.234,13.459z"/>
	<path fill="#000000" d="M7.826,15.666c-0.813,0-1.616-0.032-2.384-0.098c-0.582-0.062-1.239-0.131-1.835-0.353l-0.039-0.017
		c-0.096-0.039-0.166-0.073-0.17-0.144c0.032-0.085,0.116-0.137,0.212-0.188c0.402-0.206,0.871-0.33,1.356-0.36l0.151-0.01
		l-0.131-0.076c-0.141-0.084-0.303-0.094-0.429-0.094c-0.02,0-0.039,0.001-0.059,0.001c-0.441,0.015-0.86,0.139-1.176,0.243
		c-0.341,0.125-0.667,0.258-0.928,0.496c-0.137,0.12-0.213,0.313-0.093,0.45c0.159,0.172,0.396,0.228,0.607,0.275l0.061,0.014
		c1.212,0.209,2.498,0.338,3.82,0.386c0.313,0.009,0.623,0.014,0.918,0.014c0.904,0,1.74-0.047,2.535-0.131v-0.507
		C9.415,15.627,8.6,15.666,7.826,15.666z"/>
	<path fill="#000000" d="M7.042,16.643c-0.689-0.026-1.597-0.077-2.498-0.229l-0.207-0.036l0.173,0.12
		c0.16,0.107,0.349,0.156,0.531,0.204c0.044,0.012,0.089,0.022,0.136,0.035c0.901,0.19,1.817,0.232,2.836,0.264
		c0.2,0.004,0.401,0.006,0.602,0.006c0.573,0,1.112-0.019,1.631-0.051v-0.42C9.209,16.627,8.145,16.676,7.042,16.643z"/>
</g>
<g>
	<defs>
		<path id="SVGID_1_" d="M13.56,16.598v-3.793h2.305v3.793H13.56L13.56,16.598z M14.563,13.103h-0.742v0.684h0.742V13.103
			L14.563,13.103z M14.563,14.128h-0.742v0.686h0.742V14.128L14.563,14.128z M14.563,15.154h-0.742v0.686h0.742V15.154
			L14.563,15.154z M15.589,13.103h-0.751v0.684h0.751V13.103L15.589,13.103z M15.589,14.128h-0.751v0.686h0.751V14.128
			L15.589,14.128z M15.589,15.154h-0.751v0.686h0.751V15.154L15.589,15.154z M10.745,11.818l1.023-0.689l0.013-1.373l0.261-0.017
			l0.013,1.389l1.051,0.69v4.795h-2.36V11.818L10.745,11.818z M12.775,12.06h-0.711v0.684h0.711V12.06L12.775,12.06z M12.775,13.087
			h-0.711v0.684h0.711V13.087L12.775,13.087z M12.775,14.112h-0.711v0.685h0.711V14.112L12.775,14.112z M11.326,16.399h1.204v-1.034
			h-1.204V16.399L11.326,16.399z M11.038,14.796h0.711v-0.685h-0.711V14.796L11.038,14.796z M11.038,13.771h0.711v-0.684h-0.711
			V13.771L11.038,13.771z M11.038,12.743h0.711V12.06h-0.711V12.743L11.038,12.743z M11.791,16.354v-0.762h0.254v0.762H11.791
			L11.791,16.354z M15.346,12.824v-0.794H15.6v0.794H15.346L15.346,12.824z"/>
	</defs>
	<use xlink:href="#SVGID_1_"  overflow="visible" fill="#000000"/>
	<clipPath id="SVGID_2_">
		<use xlink:href="#SVGID_1_"  overflow="visible"/>
	</clipPath>
</g>
</svg>
