<?xml version="1.0" encoding="utf-8"?>
<!-- Generator: Adobe Illustrator 16.0.3, SVG Export Plug-In . SVG Version: 6.00 Build 0)  -->
<!DOCTYPE svg PUBLIC "-//W3C//DTD SVG 1.1//EN" "http://www.w3.org/Graphics/SVG/1.1/DTD/svg11.dtd">
<svg version="1.1" id="Ebene_1" xmlns="http://www.w3.org/2000/svg" xmlns:xlink="http://www.w3.org/1999/xlink" x="0px" y="0px"
	 width="17.008px" height="17.008px" viewBox="0 0 17.008 17.008" enable-background="new 0 0 17.008 17.008" xml:space="preserve">
<g>
	<g>
		<path fill="#000000" d="M1.072,15.471l0.808-0.582l-0.795-0.359L1.072,15.471z M1.087,13.991l1.199,0.513l0.955-0.99l-2.186-0.806
			L1.087,13.991z M7.909,4.78c0,0,0.267-0.403-0.248-0.643L6.409,3.494c0,0-0.496-0.33-0.75,0.189L5.142,4.742l2.214,1.144
			L7.909,4.78z M4.819,5.341l-3.68,6.878l2.377,0.896l3.679-6.734L4.819,5.341z M1.579,9.311L1.58,8.799L1.064,8.791v0.52H0.516
			L0.55,8.807L-0.001,8.79v0.503L0,11.414c0,0.479,0.241,0.729,0.492,0.863L2.12,9.314L1.579,9.311z M10.087,9.836V8.781H9.555V9.3
			H9.006L9.004,8.783H8.489v1.04H7.943V8.784H7.427v0.519H6.879V8.785L6.445,8.787l-1.689,3.639h6.917l-1.088-2.593L10.087,9.836z
			 M16.471,8.771l-0.512,0.006l0.034,0.533L15.43,9.299l-0.002-0.517l-0.529,0.011l0.01,0.503l-0.895,0.015l1.153,2.076
			c0,0,1.142,0.438,1.125,0.99c0,0,0.716,0.079,0.716-0.475V9.257C17.003,8.973,16.764,8.771,16.471,8.771z M9.676,3.434
			C8.295,1.421,8.018,1.539,8.018,1.539C7.861,1.517,8.125,3.11,8.535,4.016c0,0,2.359,5.114,3.152,6.74l0.805,1.762l1.934-1.146
			L9.676,3.434z M15.787,13.745c0.365-1.406-1.178-1.851-1.178-1.851l-1.76,1.013c0.576,3.356,3.985,2.438,3.985,2.438
			S15.421,15.15,15.787,13.745z"/>
	</g>
</g>
</svg>
