<?xml version="1.0" encoding="utf-8"?>
<!-- Generator: Adobe Illustrator 16.0.3, SVG Export Plug-In . SVG Version: 6.00 Build 0)  -->
<!DOCTYPE svg PUBLIC "-//W3C//DTD SVG 1.1//EN" "http://www.w3.org/Graphics/SVG/1.1/DTD/svg11.dtd">
<svg version="1.1" id="Ebene_1" xmlns="http://www.w3.org/2000/svg" xmlns:xlink="http://www.w3.org/1999/xlink" x="0px" y="0px"
	 width="17.01px" height="17.01px" viewBox="0 0 17.01 17.01" enable-background="new 0 0 17.01 17.01" xml:space="preserve">
<g>
	<g>
		<defs>
			<path id="SVGID_1_" d="M9.007,9.376c0.97-0.064,0.854-1.161,0.854-1.161V6.463c0-1.068-1.07-1.445-1.07-1.445V3.915H8.237
				L8.219,5.05c-0.996,0-1.088,1.378-1.088,1.378V8.25c0,0.902,0.622,1.088,0.848,1.126H3.347v-4.11c0-1.032,0.839-1.871,1.87-1.871
				h2.195c0.162,0,0.293-0.13,0.293-0.291c0,0-1.043-0.105-1.634-1.648c-0.589-1.541-0.2-1.454,0.22-1.454
				c0.422,0,0.097,0.178,0.855,1.544c0.68,1.225,2.177,1.558,2.177,1.558c0,0.161,0.131,0.291,0.293,0.291h2.174
				c1.033,0,1.871,0.839,1.871,1.871v4.11H9.007L9.007,9.376z M7.674,8.18V6.549c0-0.267,0.455-0.484,0.722-0.484h0.198
				c0.267,0,0.721,0.218,0.721,0.484V8.18c0,0.268-0.454,0.433-0.721,0.433H8.396C8.129,8.612,7.674,8.447,7.674,8.18L7.674,8.18z
				 M13.662,9.92v1.953c0,2.833-2.348,5.136-5.181,5.136c-2.831,0-5.134-2.303-5.134-5.136V9.92H13.662L13.662,9.92z"/>
		</defs>
		<use xlink:href="#SVGID_1_"  overflow="visible" fill-rule="evenodd" clip-rule="evenodd" fill="#000000"/>
		<clipPath id="SVGID_2_">
			<use xlink:href="#SVGID_1_"  overflow="visible"/>
		</clipPath>
	</g>
</g>
</svg>
