<?xml version="1.0" encoding="utf-8"?>
<!-- Generator: Adobe Illustrator 16.0.3, SVG Export Plug-In . SVG Version: 6.00 Build 0)  -->
<!DOCTYPE svg PUBLIC "-//W3C//DTD SVG 1.1//EN" "http://www.w3.org/Graphics/SVG/1.1/DTD/svg11.dtd">
<svg version="1.1" id="Ebene_1" xmlns="http://www.w3.org/2000/svg" xmlns:xlink="http://www.w3.org/1999/xlink" x="0px" y="0px"
	 width="17.008px" height="17.008px" viewBox="0 0 17.008 17.008" enable-background="new 0 0 17.008 17.008" xml:space="preserve">
<g>
	<g>
		<defs>
			<path id="SVGID_1_" d="M14.969,8.872c0.086,0.156,0.238,0.402,0.441,0.707c0.121,0.182,0.246,0.376,0.346,0.552l0.035,0.068
				c0.078,0.147,0.146,0.275,0.155,0.459c0.027,0.146-0.106,0.41-0.313,0.454l-0.025,0.008c-0.039,0.008-0.074,0.013-0.115,0.013
				h-0.004l-0.004-0.001c-0.227-0.015-0.397-0.104-0.615-0.219l-0.119-0.063l-0.893-0.529c-0.15-0.092-0.301-0.185-0.443-0.272
				c-0.239-0.142-0.43-0.253-0.568-0.323c-0.074-0.038-0.139-0.066-0.186-0.085c-0.008-0.003-0.016-0.005-0.021-0.009
				c-0.22,0.028-0.444,0.044-0.685,0.053h-0.153c-2.775,0-4.917-1.655-4.983-3.765V5.915c0-0.007,0-0.013,0-0.02L6.814,5.818h0.003
				c0.041-2.123,2.168-3.828,4.963-3.89c0.032-0.002,0.064-0.002,0.097-0.002h0.062c2.776,0,5.003,1.653,5.067,3.764
				c0.002,0.021,0.002,0.047,0.002,0.069C17.005,6.976,16.245,8.133,14.969,8.872L14.969,8.872z M5.42,5.982
				C5.417,6.006,5.417,6.035,5.417,6.059c0.003,1.295,0.744,2.77,2.103,3.556l2.193,1.147c0.08-0.04,0.147-0.072,0.197-0.092
				c0.009-0.002,0.016-0.006,0.023-0.007c0.234,0.029,0.472,0.047,0.728,0.054h0.163c0.899,0,1.737-0.216,2.468-0.576
				c-1.092,1.76-3.391,2.955-6.151,2.955H6.93c-0.33-0.01-0.636-0.031-0.939-0.07c-0.008,0.004-0.018,0.007-0.028,0.012
				c-0.064,0.023-0.151,0.064-0.255,0.117C5.52,13.253,5.257,13.401,4.93,13.6c-0.198,0.118-0.404,0.245-0.612,0.372l-1.222,0.726
				l-0.163,0.086c-0.299,0.155-0.535,0.281-0.847,0.3H2.083H2.078c-0.056,0-0.104-0.005-0.159-0.019l-0.035-0.008
				c-0.283-0.062-0.466-0.422-0.429-0.623c0.012-0.254,0.106-0.43,0.213-0.632l0.049-0.092c0.137-0.24,0.309-0.506,0.473-0.759
				c0.278-0.418,0.487-0.752,0.605-0.968C1.045,10.97,0.002,9.38,0,7.711c0-0.029,0-0.064,0.001-0.094
				c0.088-2.895,3.143-5.164,6.953-5.164l0.084-0.001c0.043,0,0.089,0.001,0.132,0.003c0.262,0.005,0.519,0.023,0.772,0.05
				C6.443,3.223,5.464,4.512,5.42,5.982L5.42,5.982z"/>
		</defs>
		<use xlink:href="#SVGID_1_"  overflow="visible" fill-rule="evenodd" clip-rule="evenodd" fill="#000000"/>
		<clipPath id="SVGID_2_">
			<use xlink:href="#SVGID_1_"  overflow="visible"/>
		</clipPath>
	</g>
</g>
</svg>
