<?xml version="1.0" encoding="utf-8"?>
<!-- Generator: Adobe Illustrator 16.0.3, SVG Export Plug-In . SVG Version: 6.00 Build 0)  -->
<!DOCTYPE svg PUBLIC "-//W3C//DTD SVG 1.1//EN" "http://www.w3.org/Graphics/SVG/1.1/DTD/svg11.dtd">
<svg version="1.1" id="Ebene_1" xmlns="http://www.w3.org/2000/svg" xmlns:xlink="http://www.w3.org/1999/xlink" x="0px" y="0px"
	 width="17.008px" height="17.008px" viewBox="0 0 17.008 17.008" enable-background="new 0 0 17.008 17.008" xml:space="preserve">
<g>
	<path id="SVGID_1_" fill="#000000" d="M13.107,17.008H3.902c-0.587,0-1.063-0.477-1.063-1.063V1.064
		c0-0.587,0.476-1.063,1.063-1.063h9.206c0.586,0,1.063,0.476,1.063,1.063v14.881C14.17,16.531,13.693,17.008,13.107,17.008
		L13.107,17.008z M8.508,16.207c0.293,0,0.532-0.236,0.532-0.529c0-0.295-0.239-0.533-0.532-0.533s-0.533,0.238-0.533,0.533
		C7.975,15.971,8.215,16.207,8.508,16.207L8.508,16.207z M13.107,1.064H3.902V13.82h9.206V1.064L13.107,1.064z M5.719,2.875
		C5.022,3.571,4.781,4.751,4.781,4.751V1.892h2.858C7.639,1.892,6.45,2.143,5.719,2.875L5.719,2.875z"/>
</g>
</svg>
