<?xml version="1.0" encoding="utf-8"?>
<!-- Generator: Adobe Illustrator 15.1.0, SVG Export Plug-In . SVG Version: 6.00 Build 0)  -->
<!DOCTYPE svg PUBLIC "-//W3C//DTD SVG 1.1//EN" "http://www.w3.org/Graphics/SVG/1.1/DTD/svg11.dtd">
<svg version="1.1" id="Ebene_1" xmlns="http://www.w3.org/2000/svg" xmlns:xlink="http://www.w3.org/1999/xlink" x="0px" y="0px"
	 width="17.008px" height="17.008px" viewBox="0 0 17.008 17.008" enable-background="new 0 0 17.008 17.008" xml:space="preserve">
<path d="M8.503,0C3.808,0,0,3.806,0,8.504c0,4.696,3.808,8.504,8.503,8.504c4.696,0,8.505-3.808,8.505-8.504
	C17.008,3.807,13.199,0,8.503,0z M14.146,7.699c0.5,0,0.908,0.345,1.039,0.806h-2.078C13.237,8.043,13.646,7.699,14.146,7.699z
	 M2.919,7.699c0.501,0,0.908,0.345,1.039,0.806H1.88C2.012,8.043,2.417,7.699,2.919,7.699z M2.919,9.898
	c-0.539,0-0.967-0.396-1.059-0.91h2.119C3.886,9.502,3.458,9.898,2.919,9.898z M9.17,8.588c0,0.855,0.662,3.561,0.662,3.561H7.178
	c0,0,0.647-2.828,0.647-3.563c-0.848-0.188-1.84-1.065-1.84-2.506c0-1.44,1.104-2.437,2.48-2.437s2.554,1.129,2.554,2.423
	C11.017,7.539,9.989,8.396,9.17,8.588z M14.146,9.898c-0.539,0-0.967-0.396-1.059-0.91h2.118
	C15.112,9.502,14.687,9.898,14.146,9.898z"/>
</svg>
