<?xml version="1.0" encoding="utf-8"?>
<!-- Generator: Adobe Illustrator 16.0.3, SVG Export Plug-In . SVG Version: 6.00 Build 0)  -->
<!DOCTYPE svg PUBLIC "-//W3C//DTD SVG 1.1//EN" "http://www.w3.org/Graphics/SVG/1.1/DTD/svg11.dtd">
<svg version="1.1" id="Ebene_1" xmlns="http://www.w3.org/2000/svg" xmlns:xlink="http://www.w3.org/1999/xlink" x="0px" y="0px"
	 width="17.008px" height="17.008px" viewBox="1.417 1.418 17.008 17.008" enable-background="new 1.417 1.418 17.008 17.008"
	 xml:space="preserve">
<path fill="#000000" d="M9.92,1.418c-4.695,0-8.503,3.806-8.503,8.504c0,4.696,3.808,8.504,8.503,8.504
	c4.696,0,8.505-3.808,8.505-8.504C18.425,5.225,14.616,1.418,9.92,1.418z M15.563,9.117c0.5,0,0.907,0.345,1.038,0.806h-2.077
	C14.655,9.461,15.062,9.117,15.563,9.117z M4.336,9.117c0.501,0,0.908,0.345,1.039,0.806H3.297C3.429,9.461,3.834,9.117,4.336,9.117
	z M4.336,11.316c-0.539,0-0.967-0.396-1.059-0.909h2.119C5.303,10.92,4.875,11.316,4.336,11.316z M10.587,10.006
	c0,0.856,0.662,3.561,0.662,3.561H8.595c0,0,0.647-2.829,0.647-3.563c-0.848-0.188-1.84-1.065-1.84-2.506
	c0-1.44,1.104-2.437,2.48-2.437s2.553,1.129,2.553,2.423C12.434,8.957,11.406,9.815,10.587,10.006z M15.563,11.316
	c-0.539,0-0.967-0.396-1.059-0.909h2.118C16.529,10.92,16.103,11.316,15.563,11.316z"/>
</svg>
