<?xml version="1.0" encoding="utf-8"?>
<!-- Generator: Adobe Illustrator 15.1.0, SVG Export Plug-In . SVG Version: 6.00 Build 0)  -->
<!DOCTYPE svg PUBLIC "-//W3C//DTD SVG 1.1//EN" "http://www.w3.org/Graphics/SVG/1.1/DTD/svg11.dtd">
<svg version="1.1" id="Ebene_1" xmlns="http://www.w3.org/2000/svg" xmlns:xlink="http://www.w3.org/1999/xlink" x="0px" y="0px"
	 width="17.008px" height="17.008px" viewBox="0 0 17.008 17.008" enable-background="new 0 0 17.008 17.008" xml:space="preserve">
<g>
	<g>
		<path d="M4.126,12.309l0.001-0.539L3.61,11.758l-0.001-0.543h0.516l0.002-0.521l-0.518,0.041v-0.561l0.518-0.02L4.124,9.615H3.076
			V9.061l1.047,0.018V8.522H3.606V7.983h0.516L4.121,7.445L3.073,7.462L3.072,6.891L4.12,6.924L4.119,6.385H3.603V5.83h0.515
			L4.116,5.309H3.085V4.754h1.031L4.115,4.231H3.598V3.677h0.516V3.155H3.066L3.065,2.599h1.031l0.03-0.521
			c0,0-0.021-0.539-0.516-0.539H2.58c-0.285,0-1.032-0.078-1.032,0.539L1.57,12.307h2.556V12.309z M11.86,13.387l-0.565,0.004
			l0.031-0.555l-0.495,0.014v1.076h-0.516l0.021-1.09H9.778v0.539l-0.532,0.002v-0.539H8.748v1.076H8.215V12.84l-0.499,0.002v0.539
			H7.185v-0.539h-0.5V13.9l-0.532,0.002v-1.043l-0.484-0.018l-0.016,0.521H5.121v-0.539L4.63,12.84l-0.007,1.082H4.106v-1.074H3.61
			v0.539H3.094v-0.539H2.595v1.076H2.047v-1.068l-0.5-0.008l0.001,2.691l10.295-0.002c0.284,0,0.516-0.24,0.516-0.539v-2.146
			l-0.495-0.004v0.539H11.86L11.86,13.387z M1.548,16.076l-0.016-0.02c0,0,0.016,1.098,1.004,1.098h1.59l0.005-1.086l-0.005,0.008
			H1.548z M0.001,14.488c0,1.031,1.021,1.049,1.021,1.049l0.02-2.158L0,13.367L0.001,14.488z M14.468,1.001L12.878,1l-0.006,1.087
			l0.021,0.529h2.58V2.101C15.474,2.101,15.456,1.001,14.468,1.001z M13.394,6.385V6.94h-0.516l0.016,0.521l0.502,0.005v0.558
			l-0.502-0.025l-0.013,0.54h1.048v0.555l-1.047-0.018l0.001,0.555h0.515l0.002,0.537h-0.516v0.541l1.049-0.02v0.572l-1.047-0.033
			v0.539h0.518v0.553h-0.516v0.521h1.032l0.001,0.555H12.89v0.521h0.517v0.555h-0.515v0.521h1.049v0.555h-1.032l-0.029,0.521
			c0,0,0.021,0.537,0.517,0.537h1.031c0.286,0,1.032,0.105,1.032-0.537l-0.022-9.684h-2.043V6.385z M4.646,3.696l0.028,2.146
			l0.484,0.005l0.037-0.543l0.479,0.004l0.004,0.551l0.516-0.001V4.781L6.705,4.77v1.077h0.516L7.247,5.32h0.51v0.538l0.499-0.002
			V4.778H8.79v1.078l0.499-0.001V5.314h0.532v0.539h0.5v-1.06h0.531v1.043l0.482,0.018l0.018-0.521h0.53V5.87l0.491-0.014
			l0.01-1.082h0.516v1.072h0.494V5.309h0.519v0.538h0.498V4.77h0.549v1.069l0.501,0.008V3.155L5.162,3.157
			C4.877,3.157,4.646,3.399,4.646,3.696z M17.004,4.204c0-1.033-1.021-1.049-1.021-1.049l-0.019,2.159l1.043,0.012L17.004,4.204z"/>
	</g>
</g>
</svg>
